<svg width="21" height="21" viewBox="0 0 21 21" fill="none" xmlns="http://www.w3.org/2000/svg">
<rect width="21" height="21" fill="white"/>
<path d="M15.9961 7.10938H8.09375C7.97047 7.10938 7.85223 7.0604 7.76506 6.97323C7.67788 6.88605 7.62891 6.76782 7.62891 6.64453C7.62891 6.52125 7.67788 6.40301 7.76506 6.31584C7.85223 6.22866 7.97047 6.17969 8.09375 6.17969H15.9961C16.1194 6.17969 16.2376 6.22866 16.3248 6.31584C16.412 6.40301 16.4609 6.52125 16.4609 6.64453C16.4609 6.76782 16.412 6.88605 16.3248 6.97323C16.2376 7.0604 16.1194 7.10938 15.9961 7.10938Z" fill="#232323"/>
<path d="M6.23438 7.10938H4.83984C4.71656 7.10938 4.59832 7.0604 4.51115 6.97323C4.42397 6.88605 4.375 6.76782 4.375 6.64453C4.375 6.52125 4.42397 6.40301 4.51115 6.31584C4.59832 6.22866 4.71656 6.17969 4.83984 6.17969H6.23438C6.35766 6.17969 6.47589 6.22866 6.56307 6.31584C6.65024 6.40301 6.69922 6.52125 6.69922 6.64453C6.69922 6.76782 6.65024 6.88605 6.56307 6.97323C6.47589 7.0604 6.35766 7.10938 6.23438 7.10938Z" fill="#232323"/>
<path d="M12.7422 10.8281H4.83984C4.71656 10.8281 4.59832 10.7792 4.51115 10.692C4.42397 10.6048 4.375 10.4866 4.375 10.3633C4.375 10.24 4.42397 10.1218 4.51115 10.0346C4.59832 9.94741 4.71656 9.89844 4.83984 9.89844H12.7422C12.8655 9.89844 12.9837 9.94741 13.0709 10.0346C13.1581 10.1218 13.207 10.24 13.207 10.3633C13.207 10.4866 13.1581 10.6048 13.0709 10.692C12.9837 10.7792 12.8655 10.8281 12.7422 10.8281Z" fill="#232323"/>
<path d="M8.09375 14.5469H4.83984C4.71656 14.5469 4.59832 14.4979 4.51115 14.4107C4.42397 14.3236 4.375 14.2053 4.375 14.082C4.375 13.9587 4.42397 13.8405 4.51115 13.7533C4.59832 13.6662 4.71656 13.6172 4.83984 13.6172H8.09375C8.21703 13.6172 8.33527 13.6662 8.42244 13.7533C8.50962 13.8405 8.55859 13.9587 8.55859 14.082C8.55859 14.2053 8.50962 14.3236 8.42244 14.4107C8.33527 14.4979 8.21703 14.5469 8.09375 14.5469Z" fill="#232323"/>
<path d="M7.16406 8.03906C6.88825 8.03906 6.61863 7.95727 6.3893 7.80404C6.15997 7.65081 5.98123 7.43301 5.87568 7.1782C5.77014 6.92338 5.74252 6.64298 5.79633 6.37247C5.85014 6.10196 5.98295 5.85348 6.17798 5.65845C6.37301 5.46342 6.62149 5.3306 6.892 5.2768C7.16252 5.22299 7.44291 5.2506 7.69773 5.35615C7.95254 5.4617 8.17034 5.64044 8.32357 5.86977C8.47681 6.0991 8.55859 6.36872 8.55859 6.64453C8.55859 7.01438 8.41167 7.36909 8.15015 7.63061C7.88862 7.89214 7.53392 8.03906 7.16406 8.03906ZM7.16406 6.17969C7.07213 6.17969 6.98225 6.20695 6.90581 6.25803C6.82937 6.30911 6.76979 6.3817 6.7346 6.46664C6.69942 6.55158 6.69021 6.64505 6.70815 6.73522C6.72609 6.82539 6.77036 6.90822 6.83537 6.97323C6.90038 7.03824 6.98321 7.08251 7.07338 7.10044C7.16355 7.11838 7.25701 7.10917 7.34195 7.07399C7.42689 7.03881 7.49949 6.97923 7.55057 6.90279C7.60164 6.82634 7.62891 6.73647 7.62891 6.64453C7.62891 6.52125 7.57993 6.40301 7.49276 6.31584C7.40558 6.22866 7.28735 6.17969 7.16406 6.17969Z" fill="#232323"/>
<path d="M13.6719 11.7578C13.3961 11.7578 13.1264 11.676 12.8971 11.5228C12.6678 11.3696 12.489 11.1518 12.3835 10.8969C12.2779 10.6421 12.2503 10.3617 12.3041 10.0912C12.3579 9.82071 12.4908 9.57223 12.6858 9.3772C12.8808 9.18217 13.1293 9.04935 13.3998 8.99555C13.6703 8.94174 13.9507 8.96935 14.2055 9.0749C14.4604 9.18045 14.6782 9.35919 14.8314 9.58852C14.9846 9.81785 15.0664 10.0875 15.0664 10.3633C15.0664 10.7331 14.9195 11.0878 14.658 11.3494C14.3964 11.6109 14.0417 11.7578 13.6719 11.7578ZM13.6719 9.89844C13.5799 9.89844 13.4901 9.9257 13.4136 9.97678C13.3372 10.0279 13.2776 10.1005 13.2424 10.1854C13.2072 10.2703 13.198 10.3638 13.216 10.454C13.2339 10.5441 13.2782 10.627 13.3432 10.692C13.4082 10.757 13.491 10.8013 13.5812 10.8192C13.6714 10.8371 13.7648 10.8279 13.8498 10.7927C13.9347 10.7576 14.0073 10.698 14.0584 10.6215C14.1095 10.5451 14.1367 10.4552 14.1367 10.3633C14.1367 10.24 14.0877 10.1218 14.0006 10.0346C13.9134 9.94741 13.7952 9.89844 13.6719 9.89844Z" fill="#232323"/>
<path d="M9.02344 15.4766C8.74763 15.4766 8.47801 15.3948 8.24868 15.2415C8.01935 15.0883 7.84061 14.8705 7.73506 14.6157C7.62951 14.3609 7.60189 14.0805 7.6557 13.81C7.70951 13.5395 7.84233 13.291 8.03736 13.0959C8.23238 12.9009 8.48087 12.7681 8.75138 12.7143C9.02189 12.6605 9.30228 12.6881 9.5571 12.7937C9.81192 12.8992 10.0297 13.0779 10.1829 13.3073C10.3362 13.5366 10.418 13.8062 10.418 14.082C10.418 14.4519 10.271 14.8066 10.0095 15.0681C9.748 15.3296 9.39329 15.4766 9.02344 15.4766ZM9.02344 13.6172C8.9315 13.6172 8.84163 13.6445 8.76518 13.6955C8.68874 13.7466 8.62916 13.8192 8.59398 13.9041C8.5588 13.9891 8.54959 14.0825 8.56753 14.1727C8.58546 14.2629 8.62973 14.3457 8.69474 14.4107C8.75975 14.4757 8.84258 14.52 8.93275 14.5379C9.02292 14.5559 9.11639 14.5467 9.20133 14.5115C9.28627 14.4763 9.35886 14.4167 9.40994 14.3403C9.46102 14.2638 9.48828 14.174 9.48828 14.082C9.48828 13.9587 9.43931 13.8405 9.35213 13.7533C9.26496 13.6662 9.14672 13.6172 9.02344 13.6172Z" fill="#232323"/>
<path d="M15.9961 10.8281H14.6016C14.4783 10.8281 14.36 10.7792 14.2729 10.692C14.1857 10.6048 14.1367 10.4866 14.1367 10.3633C14.1367 10.24 14.1857 10.1218 14.2729 10.0346C14.36 9.94741 14.4783 9.89844 14.6016 9.89844H15.9961C16.1194 9.89844 16.2376 9.94741 16.3248 10.0346C16.412 10.1218 16.4609 10.24 16.4609 10.3633C16.4609 10.4866 16.412 10.6048 16.3248 10.692C16.2376 10.7792 16.1194 10.8281 15.9961 10.8281Z" fill="#232323"/>
<path d="M15.9961 14.5469H9.95312C9.82984 14.5469 9.71161 14.4979 9.62443 14.4107C9.53726 14.3236 9.48828 14.2053 9.48828 14.082C9.48828 13.9587 9.53726 13.8405 9.62443 13.7533C9.71161 13.6662 9.82984 13.6172 9.95312 13.6172H15.9961C16.1194 13.6172 16.2376 13.6662 16.3248 13.7533C16.412 13.8405 16.4609 13.9587 16.4609 14.082C16.4609 14.2053 16.412 14.3236 16.3248 14.4107C16.2376 14.4979 16.1194 14.5469 15.9961 14.5469Z" fill="#232323"/>
</svg>
