<svg width="28" height="28" viewBox="0 0 28 28" fill="none" xmlns="http://www.w3.org/2000/svg">
<rect width="28" height="28" fill="#F3F3F3"/>
<path d="M13.4583 3.0395C11.283 3.3125 9.62333 5.09783 9.62333 7.1735V7.61984L8.81299 7.63717C8.03732 7.65017 7.98532 7.6545 7.75132 7.76717C7.24866 8.00117 6.89765 8.45184 6.80665 8.97184C6.73299 9.41384 5.97465 20.2775 6.00065 20.5375C6.05265 21.0662 6.49465 21.6425 7.01465 21.8505L7.26166 21.9502H14H20.7383L20.9853 21.8505C21.5053 21.6425 21.9473 21.0662 21.9993 20.5375C22.0253 20.2775 21.267 9.41817 21.1933 8.97617C21.1673 8.82451 21.1067 8.62084 21.0547 8.52551C20.9117 8.23517 20.5693 7.91451 20.2703 7.77584C20.0103 7.6545 19.9757 7.65017 19.1913 7.63717L18.3767 7.61984V7.26884C18.3723 6.22017 17.9 5.11517 17.12 4.33083C16.3747 3.58117 15.5253 3.16516 14.4767 3.03516C14.0607 2.9875 13.8917 2.9875 13.4583 3.0395ZM14.7583 4.49117C16.0193 4.81183 16.99 6.03817 16.99 7.31217V7.6285H14H11.01V7.31217C11.01 7.1345 11.049 6.84417 11.0923 6.6665C11.5083 5.04583 13.1377 4.0795 14.7583 4.49117ZM9.64499 10.8438L9.61466 12.6768L9.71433 12.8242C9.86166 13.0365 10.0177 13.1362 10.2387 13.1622C10.49 13.1925 10.75 13.0625 10.8843 12.8415L10.9883 12.6768L11.0013 10.8438L11.0143 9.01517H14H16.9857L16.9987 10.8438L17.0117 12.6768L17.1157 12.8415C17.25 13.0625 17.51 13.1925 17.7613 13.1622C17.978 13.1405 18.1383 13.0365 18.2813 12.8285C18.3767 12.6855 18.3767 12.6812 18.3767 10.8525V9.01517H19.0483C19.694 9.01517 19.72 9.01951 19.7807 9.11051C19.8283 9.18417 19.941 10.5838 20.24 14.8175L20.6387 20.4292L20.5433 20.5072C20.4523 20.5809 20.1533 20.5852 14 20.5852C7.84666 20.5852 7.54766 20.5809 7.45666 20.5072L7.36132 20.4292L7.75999 14.8175C8.05899 10.5838 8.17166 9.18417 8.21932 9.11051C8.27999 9.01951 8.30166 9.01517 8.97766 9.01517H9.67533L9.64499 10.8438Z" fill="#232323"/>
</svg>
