<svg width="112" height="67" viewBox="0 0 112 67" fill="none" xmlns="http://www.w3.org/2000/svg">
<path d="M79.4864 16.2957C79.4864 16.2957 77.9759 7.03612 88.5128 7C88.5128 7 90.2843 15.396 79.4864 16.2957Z" fill="#697662"/>
<path d="M21.2412 26.5981V45.6476H28.1941C30.005 45.6476 31.4711 45.2026 32.5973 44.3111C33.7219 43.4197 34.6545 41.9454 35.3949 39.8882L34.4492 45.9775H18.0742V16.9297H34.6972V20.2214C33.3246 18.9047 31.9882 18.0756 30.6863 17.7325C29.3827 17.3894 27.3601 17.2186 24.6167 17.2186H21.2428V23.8842C21.2428 26.5735 21.9078 28.3761 23.2392 29.2955C24.5691 30.2149 26.7428 30.673 29.7604 30.673V33.9237C29.2662 33.3474 28.5536 32.8122 27.6211 32.3197C26.6886 31.8255 25.8316 31.4085 25.0501 31.0653C24.2686 30.7222 23.5068 30.1673 22.7664 29.3989C22.026 28.6322 21.517 27.6981 21.2445 26.6014L21.2412 26.5981Z" fill="white"/>
<path d="M0.00164337 45.6163V45.3634C0.87014 45.3634 1.81087 43.5542 1.81087 42.18V20.113C1.81087 18.7388 0.87014 16.9296 0.00164337 16.9296V16.6768H6.65738V16.9296C5.78889 16.9296 4.84815 18.7388 4.84815 20.113V44.8922H9.22511C10.7799 44.8922 16.0976 44.0599 16.0976 39.7913H16.3504V45.6146H0L0.00164337 45.6163Z" fill="white"/>
<path d="M40.3004 19.8956V35.0524C40.3726 42.3961 42.5792 45.3628 44.858 45.3628V45.6156H37.7688V45.3628H39.578V21.2353C39.578 19.7528 39.253 16.9306 37.1187 16.9306V16.6777H42.5808L51.6615 41.2403L59.1135 16.6777H64.6118V16.9306C62.4775 16.9306 62.1524 19.7528 62.1524 21.2353V42.1794C62.1524 43.5535 63.0931 45.3628 63.9616 45.3628V45.6156H57.3059V45.3628C58.1744 45.3628 59.1151 43.5535 59.1151 42.1794V19.0649L50.9391 45.9784H50.2151L40.3037 19.8973L40.3004 19.8956ZM39.5764 45.3628V38.6709C39.5764 39.5033 39.5764 45.3628 37.7672 45.3628H39.5764Z" fill="white"/>
<path d="M66.0583 31.1813C66.0583 22.1745 70.7964 16.0967 77.8872 16.0967C84.9781 16.0967 89.7162 22.1745 89.7162 31.1813C89.7162 40.188 84.9781 46.1936 77.8872 46.1936C70.7964 46.1936 66.0583 40.188 66.0583 31.1813ZM78.3207 45.4696C83.5661 45.289 86.894 39.5724 86.5689 30.8907C86.28 22.1729 82.5532 16.6385 77.3077 16.8191C72.0984 16.9997 68.7705 22.7885 69.0594 31.4702C69.3845 40.188 73.0752 45.6502 78.3207 45.4696Z" fill="white"/>
<path d="M93.3345 19.389V35.0531C93.4068 42.3967 95.6133 45.3634 97.8921 45.3634V45.6163H90.8013V45.3634H92.6105V20.113C92.6105 18.7388 91.6698 16.9296 90.8013 16.9296V16.6768H95.6133L109.468 39.8651V27.2399C109.396 19.8963 107.189 16.9296 104.911 16.9296V16.6768H112V16.9296H110.192V45.6163H109.468L93.3345 19.3906V19.389ZM92.6105 45.3618V38.6699C92.6105 39.5023 92.6105 45.3618 90.8013 45.3618H92.6105ZM112 16.9279H110.192V23.6198C110.192 22.7874 110.192 16.9279 112 16.9279Z" fill="white"/>
<path d="M24.9239 57.6209H24.9009V58.4927H23.9355V49.5664H24.9009V53.5231H24.9239C25.3984 52.7219 26.0928 52.3213 27.0089 52.3213C27.7822 52.3213 28.388 52.5906 28.8247 53.1307C29.2631 53.6708 29.4814 54.3932 29.4814 55.3011C29.4814 56.3092 29.2368 57.1169 28.7459 57.7244C28.255 58.3302 27.5836 58.6339 26.7315 58.6339C25.9352 58.6339 25.3327 58.2957 24.9239 57.6209ZM24.9009 55.1895V56.0317C24.9009 56.5308 25.0634 56.9527 25.3869 57.3008C25.7103 57.6488 26.1224 57.8212 26.6198 57.8212C27.2043 57.8212 27.6624 57.598 27.994 57.1497C28.3256 56.7015 28.4915 56.0793 28.4915 55.2831C28.4915 54.6116 28.3371 54.0862 28.0268 53.7053C27.7165 53.3244 27.2963 53.134 26.7676 53.134C26.2061 53.134 25.7546 53.3293 25.4131 53.7201C25.0717 54.1108 24.9009 54.6001 24.9009 55.1895Z" fill="white"/>
<path d="M35.8694 55.7178H31.6123C31.6287 56.3893 31.8093 56.9064 32.1541 57.2726C32.4989 57.6387 32.975 57.8209 33.5792 57.8209C34.2589 57.8209 34.8827 57.5976 35.4508 57.1494V58.0557C34.9205 58.4399 34.2195 58.6319 33.3493 58.6319C32.4792 58.6319 31.829 58.3578 31.3414 57.8111C30.8555 57.2627 30.6108 56.4927 30.6108 55.4994C30.6108 54.562 30.8768 53.7969 31.4087 53.2059C31.9407 52.6148 32.6007 52.3193 33.3904 52.3193C34.18 52.3193 34.7891 52.5738 35.2209 53.0844C35.6527 53.595 35.8694 54.3026 35.8694 55.2105V55.7162V55.7178ZM34.8794 54.8986C34.8762 54.3403 34.7415 53.9069 34.4756 53.5966C34.2096 53.2863 33.8418 53.132 33.3723 53.132C32.9028 53.132 32.5301 53.2945 32.2116 53.6213C31.8931 53.9463 31.6977 54.3732 31.6222 54.8986H34.8778H34.8794Z" fill="white"/>
<path d="M41.6451 58.493H40.6797V57.5506H40.6568C40.2365 58.273 39.6192 58.6342 38.8016 58.6342C38.2007 58.6342 37.7311 58.475 37.3913 58.1581C37.0514 57.8396 36.8823 57.4177 36.8823 56.8923C36.8823 55.766 37.5456 55.111 38.8722 54.9255L40.6797 54.6726C40.6797 53.6482 40.266 53.1359 39.4369 53.1359C38.7113 53.1359 38.0546 53.3838 37.4701 53.878V52.888C38.0628 52.5104 38.7457 52.3232 39.519 52.3232C40.9359 52.3232 41.6451 53.0735 41.6451 54.5725V58.4947V58.493ZM40.6797 55.4426L39.2251 55.6429C38.7769 55.7053 38.4404 55.8169 38.2122 55.9762C37.984 56.1354 37.8707 56.4162 37.8707 56.8217C37.8707 57.1156 37.9757 57.3569 38.1859 57.5424C38.396 57.7296 38.6751 57.8215 39.0248 57.8215C39.5042 57.8215 39.8999 57.6541 40.2118 57.3175C40.5238 56.9826 40.6797 56.5574 40.6797 56.0435V55.4426Z" fill="white"/>
<path d="M48.3405 58.4931H47.3752V57.5392H47.3522C46.9516 58.2698 46.331 58.6343 45.4921 58.6343C44.0555 58.6343 43.3364 57.7789 43.3364 56.0666V52.4629H44.2969V55.9139C44.2969 57.1863 44.7828 57.8216 45.7564 57.8216C46.2276 57.8216 46.615 57.6476 46.9188 57.3012C47.2225 56.9531 47.3752 56.5 47.3752 55.9385V52.4645H48.3405V58.4931Z" fill="white"/>
<path d="M53.0868 58.4335C52.8586 58.5599 52.5582 58.6223 52.1855 58.6223C51.1299 58.6223 50.6012 58.0329 50.6012 56.8558V53.2882H49.5652V52.464H50.6012V50.9914L51.5666 50.6794V52.464H53.0852V53.2882H51.5666V56.685C51.5666 57.0889 51.6355 57.3779 51.7734 57.5503C51.9113 57.7226 52.1379 57.8097 52.4564 57.8097C52.6994 57.8097 52.9095 57.7423 53.0868 57.6094V58.4335Z" fill="white"/>
<path d="M59.1743 52.4629L56.4014 59.4585C55.9072 60.7062 55.2127 61.3301 54.3163 61.3301C54.0651 61.3301 53.855 61.3038 53.6859 61.2529V60.3877C53.8944 60.4583 54.0848 60.4944 54.2572 60.4944C54.7432 60.4944 55.1093 60.2038 55.3523 59.6227L55.8349 58.48L53.479 52.4629H54.5511L56.1814 57.1025C56.2011 57.1616 56.2421 57.3143 56.3045 57.5622H56.3406C56.3603 57.4687 56.3997 57.3193 56.4588 57.114L58.1728 52.4629H59.1743Z" fill="white"/>
<path d="M63.1494 58.2747V57.2387C63.6748 57.6278 64.2543 57.8215 64.8864 57.8215C65.7336 57.8215 66.1588 57.5392 66.1588 56.9744C66.1588 56.8135 66.1227 56.6772 66.0504 56.5656C65.9782 56.4539 65.8797 56.3538 65.7565 56.2684C65.6334 56.1814 65.4873 56.1042 65.3215 56.0353C65.154 55.9663 64.9751 55.8957 64.783 55.8202C64.5154 55.7135 64.2822 55.6068 64.0787 55.5001C63.8767 55.3917 63.7076 55.2702 63.573 55.1356C63.4384 55.001 63.3349 54.8466 63.2676 54.6726C63.2003 54.4986 63.1642 54.2983 63.1642 54.0668C63.1642 53.7844 63.2282 53.5332 63.3579 53.3165C63.4876 53.0982 63.66 52.9159 63.8767 52.7682C64.0934 52.6204 64.3397 52.5104 64.6155 52.4349C64.893 52.361 65.177 52.3232 65.4725 52.3232C65.9946 52.3232 66.4625 52.4135 66.8746 52.5941V53.571C66.4313 53.2804 65.9207 53.1359 65.3445 53.1359C65.1639 53.1359 65.0013 53.1573 64.8552 53.1983C64.7091 53.2394 64.586 53.2968 64.4809 53.3723C64.3758 53.4479 64.297 53.5365 64.2396 53.6399C64.1821 53.7434 64.1542 53.8583 64.1542 53.9847C64.1542 54.1423 64.1821 54.2737 64.2396 54.3787C64.297 54.4855 64.3791 54.579 64.4891 54.6611C64.5991 54.7432 64.7321 54.8187 64.8897 54.8844C65.0473 54.9517 65.2246 55.024 65.4249 55.1028C65.6925 55.2046 65.9306 55.3096 66.144 55.418C66.3574 55.5263 66.5364 55.6478 66.6858 55.7825C66.8352 55.9171 66.9501 56.0747 67.0306 56.2504C67.111 56.4277 67.1521 56.6378 67.1521 56.8808C67.1521 57.1796 67.0864 57.439 66.955 57.6574C66.8237 57.8757 66.648 58.0596 66.428 58.2057C66.208 58.3518 65.9552 58.4585 65.6679 58.5291C65.3806 58.5997 65.0818 58.6359 64.7666 58.6359C64.146 58.6359 63.6091 58.516 63.1527 58.2763L63.1494 58.2747Z" fill="white"/>
<path d="M73.6353 58.4927H72.6699V55.0187C72.6699 53.7628 72.202 53.134 71.2678 53.134C70.7967 53.134 70.401 53.3162 70.0792 53.679C69.7574 54.0419 69.5965 54.5081 69.5965 55.0778V58.4927H68.6312V49.5664H69.5965V53.464H69.6195C70.0825 52.7022 70.7425 52.3213 71.5978 52.3213C72.9556 52.3213 73.6353 53.1405 73.6353 54.7774V58.4927Z" fill="white"/>
<path d="M77.9744 58.6341C77.083 58.6341 76.3721 58.3518 75.8401 57.7886C75.3082 57.2255 75.0422 56.4785 75.0422 55.5476C75.0422 54.5346 75.3197 53.7433 75.873 53.1752C76.4262 52.6056 77.1749 52.3215 78.1156 52.3215C79.0564 52.3215 79.7164 52.599 80.2204 53.1523C80.7244 53.7055 80.9772 54.4739 80.9772 55.454C80.9772 56.4342 80.7047 57.1861 80.1613 57.7656C79.6179 58.3452 78.8889 58.6341 77.9744 58.6341ZM78.045 53.1342C77.4245 53.1342 76.9336 53.346 76.5724 53.7679C76.2112 54.1899 76.0306 54.7711 76.0306 55.5131C76.0306 56.2552 76.2128 56.7904 76.5789 57.2025C76.9434 57.6146 77.4327 57.8215 78.045 57.8215C78.6574 57.8215 79.1483 57.6195 79.4849 57.2157C79.8198 56.8118 79.9889 56.2355 79.9889 55.4901C79.9889 54.7448 79.8214 54.1554 79.4849 53.7466C79.1499 53.3378 78.6689 53.1342 78.045 53.1342Z" fill="white"/>
<path d="M83.5105 57.6212H83.4875V61.2659H82.5222V52.4627H83.4875V53.5233H83.5105C83.985 52.7221 84.6794 52.3215 85.5956 52.3215C86.3721 52.3215 86.9796 52.5908 87.4146 53.1309C87.8497 53.6711 88.0681 54.3934 88.0681 55.3013C88.0681 56.3094 87.8234 57.1171 87.3326 57.7246C86.8417 58.3321 86.1702 58.6341 85.3181 58.6341C84.5366 58.6341 83.9341 58.2959 83.5105 57.6212ZM83.4875 55.1897V56.0319C83.4875 56.531 83.6501 56.953 83.9735 57.301C84.2969 57.6491 84.709 57.8215 85.2065 57.8215C85.7909 57.8215 86.249 57.5982 86.5806 57.15C86.9123 56.7018 87.0781 56.0795 87.0781 55.2833C87.0781 54.6118 86.9238 54.0864 86.6135 53.7055C86.3032 53.3247 85.8829 53.1342 85.3542 53.1342C84.7927 53.1342 84.3412 53.3296 83.9997 53.7203C83.6583 54.1111 83.4875 54.6003 83.4875 55.1897Z" fill="white"/>
</svg>
