<svg width="34" height="34" viewBox="0 0 34 34" fill="none" xmlns="http://www.w3.org/2000/svg">
<path d="M17.005 17.586C18.3582 17.5848 19.669 17.1145 20.7143 16.2553C21.7596 15.396 22.4747 14.2009 22.7377 12.8736C23.0007 11.5462 22.7954 10.1688 22.1567 8.97582C21.5181 7.78288 20.4856 6.84826 19.2351 6.33116C17.9847 5.81407 16.5937 5.74649 15.299 6.13994C14.0043 6.5334 12.8861 7.36354 12.1348 8.48895C11.3835 9.61437 11.0457 10.9654 11.1788 12.312C11.3119 13.6586 11.9077 14.9174 12.8648 15.8739C13.4081 16.4179 14.0536 16.8492 14.7641 17.1431C15.4746 17.4369 16.2362 17.5874 17.005 17.586ZM13.8046 8.53682C14.545 7.79637 15.5192 7.33555 16.5612 7.23288C17.6033 7.1302 18.6487 7.39202 19.5193 7.97372C20.3899 8.55542 21.0319 9.42102 21.3359 10.423C21.6399 11.425 21.587 12.5014 21.1863 13.4688C20.7856 14.4362 20.0619 15.2347 19.1384 15.7282C18.215 16.2218 17.149 16.3799 16.122 16.1756C15.095 15.9713 14.1707 15.4173 13.5064 14.6078C12.8422 13.7984 12.4792 12.7837 12.4792 11.7366C12.4785 11.1423 12.5952 10.5536 12.8227 10.0045C13.0501 9.45535 13.3838 8.95658 13.8046 8.53682Z" fill="black"/>
<path d="M17.0053 18.5134C12.0483 18.5134 8.01526 22.5458 8.01526 27.5029C8.01526 27.5901 8.03245 27.6765 8.06584 27.7572C8.09923 27.8378 8.14817 27.911 8.20987 27.9727C8.27157 28.0344 8.34482 28.0834 8.42544 28.1168C8.50605 28.1501 8.59245 28.1673 8.67971 28.1673H25.3303C25.5065 28.1673 25.6755 28.0973 25.8001 27.9727C25.9247 27.8481 25.9948 27.6791 25.9948 27.5029C25.9948 22.5458 21.9617 18.5134 17.0053 18.5134ZM9.37288 26.8384C9.71038 22.9244 13.0057 19.8423 17.0053 19.8423C21.0049 19.8423 24.2996 22.9244 24.6371 26.8384H9.37288Z" fill="black"/>
</svg>
