<svg width="34" height="34" viewBox="0 0 34 34" fill="none" xmlns="http://www.w3.org/2000/svg">
<g clip-path="url(#clip0_283_190)">
<path d="M28.4862 9.29058H9.45735C9.4203 9.29058 9.38693 9.3045 9.35188 9.31218L8.5779 6.74226C8.56918 6.71449 8.55061 6.69392 8.53829 6.66823C8.51716 6.40392 8.30174 6.19458 8.03222 6.19458C8.03174 6.19458 8.0307 6.19458 8.03014 6.19458L5.51223 6.2053C5.22783 6.2069 4.99896 6.43833 5 6.72217C5.00104 7.00553 5.23095 7.23439 5.51431 7.23439C5.51479 7.23439 5.51583 7.23439 5.51639 7.23439L7.64915 7.22511L12.5725 23.5647C12.0834 24.0116 11.7712 24.6483 11.7712 25.3626C11.7712 26.7117 12.8646 27.8055 14.2141 27.8055C15.5631 27.8055 16.6569 26.7116 16.6569 25.3626C16.6569 25.0109 16.5798 24.6786 16.446 24.3768H23.5536C23.4199 24.6787 23.3427 25.0109 23.3427 25.3626C23.3427 26.7117 24.4361 27.8055 25.7856 27.8055C27.1346 27.8055 28.2284 26.7116 28.2284 25.3626C28.2284 24.0137 27.1345 22.9198 25.7856 22.9198C25.2733 22.9198 24.7987 23.0787 24.4057 23.3482H15.5934C15.2005 23.0787 14.7263 22.9198 14.2141 22.9198C13.9595 22.9198 13.7188 22.9697 13.4878 23.0417L12.7534 20.605L25.7105 20.5947C25.9373 20.5947 26.124 20.445 26.1919 20.2408C26.2095 20.2084 26.2284 20.177 26.2387 20.14L28.9814 10.0259C28.999 9.96165 29.001 9.89731 28.9938 9.83513C28.9942 9.82433 28.9999 9.81561 28.9999 9.80528C29.0005 9.52096 28.7701 9.29058 28.4862 9.29058ZM25.7861 23.9479C26.5663 23.9479 27.2005 24.582 27.2005 25.3622C27.2005 26.1424 26.5664 26.7766 25.7861 26.7766C25.0059 26.7766 24.3718 26.1425 24.3718 25.3622C24.3719 24.582 25.006 23.9479 25.7861 23.9479ZM14.2146 23.9479C14.9948 23.9479 15.6289 24.582 15.6289 25.3622C15.6289 26.1424 14.9948 26.7766 14.2146 26.7766C13.4344 26.7766 12.8003 26.1425 12.8003 25.3622C12.8003 24.582 13.4344 23.9479 14.2146 23.9479ZM25.329 19.5666L12.4444 19.5769L9.6554 10.3197H27.8366L25.329 19.5666Z" fill="black"/>
</g>
<defs>
<clipPath id="clip0_283_190">
<rect width="24" height="24" fill="white" transform="translate(5 5)"/>
</clipPath>
</defs>
</svg>
