<svg width="34" height="34" viewBox="0 0 34 34" fill="none" xmlns="http://www.w3.org/2000/svg">
<g clip-path="url(#clip0_283_194)">
<path d="M26.7981 8.20641C25.9595 7.46637 24.7974 6.89062 23.3204 6.89062C21.3738 6.89062 18.9747 7.88997 16.9861 10.8309C14.998 7.89048 12.6293 6.89062 10.6832 6.89062C9.20568 6.89062 8.01323 7.46637 7.17463 8.20641C5.36246 9.73197 4.70078 11.9293 5.12286 14.4729C5.74966 18.2535 12.3286 22.1073 16.9861 27.1101C21.6437 22.1073 28.2539 18.2535 28.8807 14.4729C29.3023 11.9293 28.6098 9.73197 26.7981 8.20641ZM27.8698 14.4729C27.5286 16.5313 24.7731 18.7569 21.7625 21.3319C20.1575 22.7043 18.5056 24.1166 16.9861 25.6538C15.4666 24.1166 13.8147 22.7038 12.2098 21.3314C9.1991 18.7569 6.47504 16.5308 6.13383 14.4729C5.77544 12.312 6.28093 10.2784 7.83884 8.96615C8.59404 8.29942 9.59642 7.9016 10.6832 7.9016C12.0556 7.9016 14.1994 8.50869 16.1536 11.3991L16.9861 12.6304L17.8187 11.3991C19.7734 8.50818 21.948 7.9016 23.3204 7.9016C24.4072 7.9016 25.3782 8.29942 26.1516 8.98132C27.6918 10.2784 28.2276 12.312 27.8698 14.4729Z" fill="black"/>
</g>
<defs>
<clipPath id="clip0_283_194">
<rect width="24" height="24" fill="white" transform="translate(5 5)"/>
</clipPath>
</defs>
</svg>
