<svg width="24" height="24" viewBox="0 0 24 24" fill="none" xmlns="http://www.w3.org/2000/svg">
<g clip-path="url(#clip0_416_437)">
<path d="M21.7981 3.20628C20.9595 2.46625 19.7974 1.8905 18.3203 1.8905C16.3737 1.8905 13.9747 2.88985 11.9861 5.83077C9.99802 2.89036 7.62931 1.8905 5.68318 1.8905C4.20565 1.8905 3.0132 2.46625 2.1746 3.20628C0.36243 4.73184 -0.299252 6.92919 0.12283 9.4728C0.749633 13.2533 7.32854 17.1072 11.9861 22.11C16.6437 17.1072 23.2539 13.2533 23.8807 9.4728C24.3023 6.92919 23.6098 4.73184 21.7981 3.20628ZM22.8697 9.4728C22.5285 11.5311 19.7731 13.7568 16.7624 16.3317C15.1575 17.7041 13.5056 19.1165 11.9861 20.6537C10.4666 19.1165 8.81467 17.7036 7.20975 16.3312C4.19907 13.7568 1.47501 11.5306 1.1338 9.4728C0.775413 7.31185 1.2809 5.27827 2.83881 3.96603C3.59401 3.29929 4.59639 2.90148 5.68318 2.90148C7.05558 2.90148 9.19935 3.50857 11.1536 6.39894L11.9861 7.6303L12.8186 6.39894C14.7733 3.50806 16.948 2.90148 18.3203 2.90148C19.4071 2.90148 20.3782 3.29929 21.1516 3.9812C22.6918 5.27827 23.2276 7.31185 22.8697 9.4728Z" fill="black"/>
</g>
<defs>
<clipPath id="clip0_416_437">
<rect width="24" height="24" fill="white"/>
</clipPath>
</defs>
</svg>
