<svg width="112" height="55" viewBox="0 0 112 55" fill="none" xmlns="http://www.w3.org/2000/svg">
<path d="M79.4864 9.29571C79.4864 9.29571 77.9759 0.036119 88.5128 0C88.5128 0 90.2843 8.39602 79.4864 9.29571Z" fill="#697662"/>
<path d="M21.2413 19.5978V38.6473H28.1942C30.005 38.6473 31.4711 38.2024 32.5974 37.3109C33.722 36.4194 34.6545 34.9451 35.395 32.888L34.4493 38.9773H18.0743V9.92944H34.6972V13.2212C33.3247 11.9045 31.9883 11.0754 30.6864 10.7323C29.3828 10.3891 27.3601 10.2184 24.6167 10.2184H21.2429V16.884C21.2429 19.5732 21.9078 21.3759 23.2393 22.2953C24.5691 23.2147 26.7428 23.6727 29.7604 23.6727V26.9234C29.2662 26.3472 28.5537 25.8119 27.6212 25.3194C26.6887 24.8252 25.8317 24.4082 25.0502 24.0651C24.2687 23.722 23.5069 23.167 22.7665 22.3987C22.026 21.632 21.5171 20.6978 21.2445 19.6011L21.2413 19.5978Z" fill="#231F20"/>
<path d="M0.00164337 38.616V38.3632C0.87014 38.3632 1.81087 36.5539 1.81087 35.1798V13.1127C1.81087 11.7386 0.87014 9.92934 0.00164337 9.92934V9.67651H6.65738V9.92934C5.78889 9.92934 4.84815 11.7386 4.84815 13.1127V37.892H9.22511C10.7799 37.892 16.0976 37.0596 16.0976 32.791H16.3504V38.6144H0L0.00164337 38.616Z" fill="#231F20"/>
<path d="M40.3005 12.8961V28.0529C40.3728 35.3966 42.5793 38.3633 44.8581 38.3633V38.6161H37.7689V38.3633H39.5781V14.2358C39.5781 12.7533 39.2531 9.93106 37.1188 9.93106V9.67822H42.581L51.6616 34.2408L59.1136 9.67822H64.6119V9.93106C62.4776 9.93106 62.1525 12.7533 62.1525 14.2358V35.1799C62.1525 36.554 63.0932 38.3633 63.9617 38.3633V38.6161H57.306V38.3633C58.1745 38.3633 59.1152 36.554 59.1152 35.1799V12.0654L50.9392 38.9789H50.2152L40.3038 12.8977L40.3005 12.8961ZM39.5765 38.3633V31.6714C39.5765 32.5038 39.5765 38.3633 37.7673 38.3633H39.5765Z" fill="#231F20"/>
<path d="M66.0583 24.1815C66.0583 15.1748 70.7964 9.09692 77.8872 9.09692C84.9781 9.09692 89.7162 15.1748 89.7162 24.1815C89.7162 33.1883 84.9781 39.1939 77.8872 39.1939C70.7964 39.1939 66.0583 33.1883 66.0583 24.1815ZM78.3207 38.4698C83.5661 38.2893 86.894 32.5726 86.5689 23.8909C86.28 15.1731 82.5532 9.63871 77.3077 9.8193C72.0984 9.9999 68.7705 15.7888 69.0594 24.4705C69.3845 33.1883 73.0752 38.6504 78.3207 38.4698Z" fill="#231F20"/>
<path d="M93.3347 12.3887V28.0529C93.407 35.3965 95.6135 38.3632 97.8923 38.3632V38.616H90.8015V38.3632H92.6107V13.1127C92.6107 11.7386 91.6699 9.92934 90.8015 9.92934V9.67651H95.6135L109.468 32.8649V20.2397C109.396 12.896 107.19 9.92934 104.911 9.92934V9.67651H112V9.92934H110.192V38.616H109.468L93.3347 12.3904V12.3887ZM92.6107 38.3615V31.6697C92.6107 32.5021 92.6107 38.3615 90.8015 38.3615H92.6107ZM112 9.9277H110.192V16.6196C110.192 15.7872 110.192 9.9277 112 9.9277Z" fill="#231F20"/>
<path d="M24.9237 50.6207H24.9007V51.4925H23.9354V42.5662H24.9007V46.5228H24.9237C25.3982 45.7216 26.0927 45.3211 27.0088 45.3211C27.782 45.3211 28.3878 45.5903 28.8246 46.1305C29.2629 46.6706 29.4813 47.393 29.4813 48.3009C29.4813 49.3089 29.2366 50.1167 28.7458 50.7241C28.2549 51.3299 27.5834 51.6337 26.7313 51.6337C25.935 51.6337 25.3325 51.2955 24.9237 50.6207ZM24.9007 48.1892V49.0315C24.9007 49.5306 25.0633 49.9525 25.3867 50.3005C25.7101 50.6486 26.1222 50.821 26.6197 50.821C27.2041 50.821 27.6622 50.5977 27.9938 50.1495C28.3255 49.7013 28.4913 49.0791 28.4913 48.2828C28.4913 47.6113 28.3369 47.086 28.0267 46.7051C27.7164 46.3242 27.2961 46.1337 26.7674 46.1337C26.2059 46.1337 25.7544 46.3291 25.413 46.7198C25.0715 47.1106 24.9007 47.5998 24.9007 48.1892Z" fill="#231F20"/>
<path d="M35.8694 48.718H31.6123C31.6287 49.3895 31.8093 49.9067 32.1541 50.2728C32.4989 50.6389 32.975 50.8212 33.5792 50.8212C34.2589 50.8212 34.8827 50.5979 35.4508 50.1497V51.0559C34.9205 51.4401 34.2195 51.6322 33.3493 51.6322C32.4792 51.6322 31.829 51.358 31.3414 50.8113C30.8555 50.263 30.6108 49.493 30.6108 48.4997C30.6108 47.5622 30.8768 46.7972 31.4087 46.2061C31.9407 45.6151 32.6007 45.3196 33.3904 45.3196C34.18 45.3196 34.7891 45.5741 35.2209 46.0846C35.6527 46.5952 35.8694 47.3028 35.8694 48.2107V48.7164V48.718ZM34.8794 47.8988C34.8762 47.3406 34.7415 46.9072 34.4756 46.5969C34.2096 46.2866 33.8418 46.1323 33.3723 46.1323C32.9028 46.1323 32.5301 46.2948 32.2116 46.6215C31.8931 46.9466 31.6977 47.3734 31.6222 47.8988H34.8778H34.8794Z" fill="#231F20"/>
<path d="M41.6452 51.4925H40.6798V50.5502H40.6568C40.2365 51.2725 39.6192 51.6337 38.8016 51.6337C38.2007 51.6337 37.7312 51.4745 37.3913 51.1576C37.0515 50.8391 36.8824 50.4172 36.8824 49.8918C36.8824 48.7656 37.5457 48.1105 38.8722 47.925L40.6798 47.6721C40.6798 46.6477 40.2661 46.1354 39.437 46.1354C38.7113 46.1354 38.0546 46.3833 37.4701 46.8775V45.8875C38.0628 45.5099 38.7458 45.3228 39.5191 45.3228C40.9359 45.3228 41.6452 46.073 41.6452 47.572V51.4942V51.4925ZM40.6798 48.4421L39.2252 48.6424C38.777 48.7048 38.4404 48.8164 38.2122 48.9757C37.984 49.1349 37.8707 49.4157 37.8707 49.8212C37.8707 50.1151 37.9758 50.3564 38.186 50.542C38.3961 50.7291 38.6752 50.8211 39.0249 50.8211C39.5043 50.8211 39.9 50.6536 40.2119 50.317C40.5238 49.9821 40.6798 49.5569 40.6798 49.043V48.4421Z" fill="#231F20"/>
<path d="M48.3403 51.4926H47.3749V50.5388H47.352C46.9514 51.2693 46.3308 51.6338 45.4918 51.6338C44.0553 51.6338 43.3362 50.7785 43.3362 49.0661V45.4624H44.2966V48.9134C44.2966 50.1858 44.7826 50.8211 45.7562 50.8211C46.2273 50.8211 46.6148 50.6471 46.9185 50.3007C47.2223 49.9526 47.3749 49.4995 47.3749 48.938V45.464H48.3403V51.4926Z" fill="#231F20"/>
<path d="M53.0867 51.4333C52.8585 51.5597 52.558 51.6221 52.1853 51.6221C51.1297 51.6221 50.601 51.0327 50.601 49.8555V46.288H49.5651V45.4638H50.601V43.9911L51.5664 43.6792V45.4638H53.085V46.288H51.5664V49.6848C51.5664 50.0887 51.6353 50.3776 51.7732 50.55C51.9112 50.7224 52.1377 50.8094 52.4562 50.8094C52.6992 50.8094 52.9094 50.7421 53.0867 50.6091V51.4333Z" fill="#231F20"/>
<path d="M59.1744 45.4624L56.4014 52.458C55.9072 53.7057 55.2128 54.3296 54.3164 54.3296C54.0652 54.3296 53.855 54.3033 53.6859 54.2524V53.3872C53.8944 53.4578 54.0849 53.4939 54.2573 53.4939C54.7432 53.4939 55.1093 53.2034 55.3523 52.6222L55.835 51.4795L53.4791 45.4624H54.5511L56.1814 50.102C56.2011 50.1612 56.2422 50.3138 56.3045 50.5617H56.3407C56.3604 50.4682 56.3998 50.3188 56.4589 50.1135L58.1729 45.4624H59.1744Z" fill="#231F20"/>
<path d="M63.1491 51.2742V50.2382C63.6745 50.6273 64.254 50.8211 64.8861 50.8211C65.7333 50.8211 66.1585 50.5387 66.1585 49.9739C66.1585 49.813 66.1224 49.6767 66.0501 49.5651C65.9779 49.4535 65.8794 49.3533 65.7562 49.2679C65.6331 49.1809 65.487 49.1038 65.3212 49.0348C65.1537 48.9659 64.9748 48.8953 64.7827 48.8197C64.5151 48.713 64.2819 48.6063 64.0784 48.4996C63.8764 48.3912 63.7073 48.2697 63.5727 48.1351C63.4381 48.0005 63.3346 47.8462 63.2673 47.6721C63.2 47.4981 63.1639 47.2978 63.1639 47.0663C63.1639 46.7839 63.2279 46.5327 63.3576 46.316C63.4873 46.0977 63.6597 45.9154 63.8764 45.7677C64.0931 45.6199 64.3394 45.5099 64.6152 45.4344C64.8927 45.3605 65.1767 45.3228 65.4722 45.3228C65.9943 45.3228 66.4622 45.4131 66.8743 45.5937V46.5705C66.431 46.2799 65.9204 46.1354 65.3442 46.1354C65.1636 46.1354 65.001 46.1568 64.8549 46.1978C64.7088 46.2389 64.5857 46.2963 64.4806 46.3718C64.3755 46.4474 64.2967 46.536 64.2392 46.6395C64.1818 46.7429 64.1539 46.8578 64.1539 46.9842C64.1539 47.1418 64.1818 47.2732 64.2392 47.3783C64.2967 47.485 64.3788 47.5786 64.4888 47.6606C64.5988 47.7427 64.7318 47.8183 64.8894 47.8839C65.047 47.9512 65.2243 48.0235 65.4246 48.1023C65.6922 48.2041 65.9303 48.3091 66.1437 48.4175C66.3571 48.5259 66.5361 48.6473 66.6855 48.782C66.8349 48.9166 66.9498 49.0742 67.0303 49.2499C67.1107 49.4272 67.1517 49.6373 67.1517 49.8803C67.1517 50.1791 67.0861 50.4385 66.9547 50.6569C66.8234 50.8752 66.6477 51.0591 66.4277 51.2052C66.2077 51.3513 65.9549 51.4581 65.6676 51.5287C65.3803 51.5993 65.0815 51.6354 64.7663 51.6354C64.1457 51.6354 63.6088 51.5155 63.1524 51.2758L63.1491 51.2742Z" fill="#231F20"/>
<path d="M73.6351 51.4925H72.6697V48.0185C72.6697 46.7625 72.2018 46.1337 71.2677 46.1337C70.7965 46.1337 70.4008 46.316 70.079 46.6788C69.7572 47.0416 69.5963 47.5079 69.5963 48.0776V51.4925H68.631V42.5662H69.5963V46.4637H69.6193C70.0823 45.7019 70.7423 45.3211 71.5977 45.3211C72.9554 45.3211 73.6351 46.1403 73.6351 47.7771V51.4925Z" fill="#231F20"/>
<path d="M77.9743 51.6339C77.0828 51.6339 76.3719 51.3515 75.84 50.7884C75.308 50.2253 75.0421 49.4782 75.0421 48.5474C75.0421 47.5344 75.3195 46.7431 75.8728 46.175C76.4261 45.6053 77.1747 45.3213 78.1155 45.3213C79.0562 45.3213 79.7162 45.5987 80.2202 46.152C80.7242 46.7053 80.9771 47.4736 80.9771 48.4538C80.9771 49.4339 80.7045 50.1859 80.1611 50.7654C79.6177 51.3449 78.8887 51.6339 77.9743 51.6339ZM78.0449 46.134C77.4243 46.134 76.9334 46.3458 76.5722 46.7677C76.211 47.1896 76.0304 47.7708 76.0304 48.5129C76.0304 49.255 76.2126 49.7902 76.5788 50.2023C76.9432 50.6144 77.4325 50.8212 78.0449 50.8212C78.6572 50.8212 79.1481 50.6193 79.4847 50.2154C79.8196 49.8115 79.9887 49.2353 79.9887 48.4899C79.9887 47.7445 79.8212 47.1551 79.4847 46.7463C79.1498 46.3375 78.6687 46.134 78.0449 46.134Z" fill="#231F20"/>
<path d="M83.5103 50.6209H83.4873V54.2657H82.522V45.4625H83.4873V46.5231H83.5103C83.9848 45.7219 84.6793 45.3213 85.5954 45.3213C86.3719 45.3213 86.9794 45.5905 87.4145 46.1307C87.8495 46.6708 88.0679 47.3932 88.0679 48.3011C88.0679 49.3091 87.8233 50.1169 87.3324 50.7244C86.8415 51.3318 86.17 51.6339 85.3179 51.6339C84.5364 51.6339 83.9339 51.2957 83.5103 50.6209ZM83.4873 48.1895V49.0317C83.4873 49.5308 83.6499 49.9527 83.9733 50.3008C84.2967 50.6488 84.7088 50.8212 85.2063 50.8212C85.7907 50.8212 86.2488 50.5979 86.5804 50.1497C86.9121 49.7015 87.0779 49.0793 87.0779 48.283C87.0779 47.6116 86.9236 47.0862 86.6133 46.7053C86.303 46.3244 85.8827 46.134 85.354 46.134C84.7925 46.134 84.3411 46.3293 83.9996 46.7201C83.6581 47.1108 83.4873 47.6001 83.4873 48.1895Z" fill="#231F20"/>
</svg>
