<svg width="28" height="28" viewBox="0 0 28 28" fill="none" xmlns="http://www.w3.org/2000/svg">
<rect width="28" height="28" fill="white"/>
<path d="M4.37758 6.05646C3.99953 6.22136 3.87887 6.73213 4.14431 7.04986C4.35747 7.30324 3.91909 7.28715 10.9412 7.28715C17.2958 7.28715 17.3641 7.28715 17.525 7.20671C17.7744 7.08203 17.8508 6.95334 17.8508 6.64365C17.8508 6.33397 17.7744 6.20527 17.525 6.08059C17.3641 6.00016 17.2998 6.00016 10.9292 6.00016C5.67262 6.00418 4.47411 6.01222 4.37758 6.05646Z" fill="#365A3A"/>
<path d="M16.2823 8.37292C15.3653 8.56597 14.5931 8.96816 13.9255 9.60763C13.1975 10.2994 12.7109 11.1681 12.4977 12.1535C12.4012 12.6079 12.3972 13.6496 12.4937 14.0759C12.7752 15.3227 13.4589 16.3603 14.4564 17.0682C16.053 18.2063 18.2932 18.2425 19.91 17.1566L20.1794 16.9757L21.2251 18.0213C21.8043 18.5965 22.3271 19.0871 22.3874 19.1072C22.7092 19.2319 23.0591 19.1113 23.2079 18.8297C23.4291 18.4155 23.3648 18.319 22.1542 17.1003C21.5911 16.5333 21.1286 16.0587 21.1286 16.0426C21.1286 16.0265 21.197 15.9099 21.2855 15.7812C21.9732 14.7677 22.2467 13.36 21.9933 12.1615C21.6434 10.4965 20.457 9.12501 18.8844 8.55793C18.1283 8.28846 17.0585 8.21205 16.2823 8.37292ZM18.1203 9.676C19.3831 9.99775 20.3484 10.959 20.6942 12.2419C20.8229 12.7125 20.8229 13.5209 20.6983 13.9834C20.2599 15.5962 18.8925 16.6579 17.2475 16.6579C15.0275 16.6579 13.3664 14.6832 13.7485 12.4953C13.9094 11.5864 14.4724 10.7056 15.2366 10.1828C15.5221 9.98569 16.0571 9.7484 16.407 9.66394C16.8896 9.54328 17.6256 9.55133 18.1203 9.676Z" fill="#365A3A"/>
<path d="M4.37758 9.5957C3.99953 9.7606 3.87887 10.2714 4.14431 10.5891C4.35345 10.8344 4.22475 10.8264 7.65539 10.8264C10.6999 10.8264 10.8005 10.8224 10.9493 10.7459C11.3957 10.5207 11.4078 9.87723 10.9694 9.6319L10.8125 9.53939L7.65539 9.54342C5.12162 9.54342 4.47411 9.55146 4.37758 9.5957Z" fill="#365A3A"/>
<path d="M4.37758 13.135C3.99953 13.2999 3.87887 13.8107 4.14431 14.1284C4.35345 14.3737 4.22475 14.3657 7.65539 14.3657C10.6999 14.3657 10.8005 14.3617 10.9493 14.2853C11.3957 14.06 11.4078 13.4165 10.9694 13.1712L10.8125 13.0787L7.65539 13.0827C5.12162 13.0827 4.47411 13.0908 4.37758 13.135Z" fill="#365A3A"/>
<path d="M4.37758 16.6743C3.99953 16.8392 3.87887 17.35 4.14431 17.6677C4.35345 17.913 4.22475 17.905 7.65539 17.905C10.6999 17.905 10.8005 17.901 10.9493 17.8246C11.3957 17.5993 11.4078 16.9558 10.9694 16.7105L10.8125 16.618L7.65539 16.622C5.12162 16.622 4.47411 16.6301 4.37758 16.6743Z" fill="#365A3A"/>
<path d="M4.37759 20.2134C4.10813 20.3301 3.9553 20.6397 4.01161 20.9414C4.0478 21.1304 4.2489 21.3516 4.42988 21.4039C4.53445 21.4361 6.65798 21.4441 11.2831 21.4361C17.9795 21.424 17.9875 21.424 18.0961 21.3395C18.3093 21.1827 18.3736 21.054 18.3736 20.8006C18.3736 20.5472 18.3093 20.4185 18.0961 20.2617C17.9875 20.1772 17.9835 20.1772 11.2429 20.1692C5.69676 20.1611 4.47814 20.1692 4.37759 20.2134Z" fill="#365A3A"/>
</svg>
