<svg width="28" height="28" viewBox="0 0 28 28" fill="none" xmlns="http://www.w3.org/2000/svg">
<rect width="28" height="28" fill="white"/>
<path d="M13.1686 5.01214C12.0671 5.1526 11.132 5.61094 10.3558 6.39085C9.66085 7.08945 9.25057 7.83979 9.04357 8.79712C8.94747 9.23698 8.94747 10.2054 9.04357 10.6453C9.24687 11.5952 9.66824 12.3677 10.3558 13.0515C11.0396 13.739 11.8121 14.1604 12.762 14.3637C13.2019 14.4598 14.1703 14.4598 14.6102 14.3637C15.5675 14.1567 16.3178 13.7464 17.0164 13.0515C17.7039 12.3677 18.1253 11.5952 18.3286 10.6453C18.4247 10.2054 18.4247 9.23698 18.3286 8.79712C18.1253 7.84718 17.7039 7.07466 17.0164 6.39085C16.3326 5.70704 15.6119 5.30784 14.6841 5.09715C14.3773 5.02693 13.4606 4.97518 13.1686 5.01214ZM14.5399 6.27996C15.2016 6.44999 15.719 6.74939 16.1996 7.24099C16.6764 7.72151 16.9832 8.26856 17.1495 8.93019C17.2382 9.28134 17.2382 10.1611 17.1495 10.5122C16.9795 11.196 16.6875 11.7098 16.1811 12.2162C15.6747 12.7226 15.1609 13.0146 14.4771 13.1846C14.1149 13.2733 13.2795 13.2733 12.9099 13.1846C11.5644 12.8593 10.559 11.8576 10.2227 10.5122C10.134 10.1611 10.134 9.28134 10.2227 8.93019C10.3927 8.25747 10.6958 7.71781 11.1874 7.22251C11.7714 6.6422 12.3148 6.36867 13.2425 6.19495C13.4606 6.15429 14.2664 6.20604 14.5399 6.27996Z" fill="#232323"/>
<path d="M10.6921 15.0587C10.4112 15.1622 9.79761 15.4949 9.43168 15.7389C7.47266 17.0547 6.26398 19.0877 6.03111 21.457C5.97197 22.0743 5.99415 22.3182 6.12352 22.4919C6.32312 22.7507 5.71693 22.7322 13.7378 22.7248L21.001 22.7137L21.1008 22.6361C21.3706 22.4365 21.415 22.2184 21.3411 21.457C21.0786 18.755 19.4966 16.4411 17.1125 15.262C16.51 14.9626 16.5064 14.9626 15.9852 15.1659C15.0944 15.5134 14.5806 15.6095 13.6861 15.6095C12.7879 15.6095 12.215 15.4986 11.3648 15.1548C10.9693 14.9959 10.8917 14.9848 10.6921 15.0587ZM11.2096 16.3709C11.5496 16.504 12.1078 16.6481 12.5772 16.7258C13.8044 16.9254 15.1646 16.7701 16.3696 16.297C16.4805 16.2526 16.5064 16.2637 16.8649 16.467C18.081 17.1545 19.0827 18.2523 19.6334 19.5127C19.8884 20.0857 20.1546 21.0874 20.1546 21.4644V21.5494H13.6861H7.21762V21.4644C7.21762 21.3054 7.3359 20.6808 7.4283 20.3666C7.89773 18.7254 8.98074 17.3467 10.4703 16.4892C10.6847 16.3635 10.8732 16.2637 10.8954 16.2637C10.9139 16.2637 11.058 16.3118 11.2096 16.3709Z" fill="#232323"/>
</svg>
