<svg width="28" height="28" viewBox="0 0 28 28" fill="none" xmlns="http://www.w3.org/2000/svg">
<rect width="28" height="28" fill="white"/>
<g clip-path="url(#clip0_6_2773)">
<path d="M13.427 5.08438C13.3145 5.13008 13.1633 5.21094 13.093 5.26016C13.0191 5.30938 11.2437 7.0707 9.1414 9.17305C6.06172 12.2598 5.30586 13.0332 5.23203 13.1809C4.89453 13.8629 5.00703 14.6082 5.52383 15.1285C5.84726 15.4484 6.25859 15.6172 6.72969 15.6172H6.96875V18.4297C6.96875 20.3316 6.98281 21.2984 7.00742 21.425C7.14101 22.0648 7.65781 22.6449 8.29765 22.8664C8.52969 22.9473 8.54726 22.9473 10.2453 22.9473C11.9187 22.9473 11.9574 22.9473 12.0523 22.8734C12.1051 22.8348 12.1824 22.7574 12.2211 22.7047C12.2949 22.6098 12.2949 22.5641 12.3125 20.2613L12.3301 17.9129L12.4355 17.7406C12.5691 17.5262 12.8398 17.3539 13.1 17.3223C13.1984 17.3082 13.6906 17.3047 14.1934 17.3117L15.1074 17.3223L15.2937 17.4242C15.4695 17.5227 15.582 17.6387 15.691 17.832C15.7297 17.9059 15.7437 18.3383 15.7578 20.2648C15.7754 22.5641 15.7754 22.6098 15.8492 22.7047C15.8879 22.7574 15.9652 22.8348 16.018 22.8734C16.1129 22.9473 16.1516 22.9473 17.825 22.9473C19.523 22.9473 19.5406 22.9473 19.7727 22.8664C20.4125 22.6449 20.9293 22.0648 21.0629 21.425C21.0875 21.2984 21.1016 20.3316 21.1016 18.4297V15.6172H21.3406C22.0016 15.6172 22.5781 15.2656 22.8629 14.6855C22.9824 14.443 22.9824 14.4359 22.9824 13.9648C22.9824 13.1633 23.3867 13.6379 18.8727 9.12734C14.3867 4.63789 14.8367 5.02461 14.0703 5.00703C13.673 5 13.6133 5.00703 13.427 5.08438ZM14.2953 6.08984C14.5027 6.18828 21.8504 13.5465 21.9277 13.7258C22.0016 13.9051 21.9945 14.0563 21.9066 14.232C21.7766 14.5027 21.6676 14.5414 20.9891 14.5625C20.3527 14.5801 20.307 14.5941 20.1383 14.8227C20.0645 14.9176 20.0645 14.9563 20.0469 18.1063L20.0293 21.2949L19.9309 21.4602C19.8781 21.5516 19.7832 21.6676 19.7199 21.7133C19.4738 21.9031 19.4 21.9102 18.057 21.9102H16.8125V19.9414C16.8125 18.6512 16.7984 17.9129 16.7738 17.7898C16.6367 17.1289 16.1059 16.5594 15.4238 16.3449C15.1918 16.2711 15.1145 16.2676 14.0352 16.2676C12.7766 16.2676 12.7133 16.2746 12.2633 16.5031C11.8168 16.7281 11.402 17.2836 11.2965 17.7898C11.2719 17.9129 11.2578 18.6512 11.2578 19.9414V21.9102H10.0133C8.67031 21.9102 8.59648 21.9031 8.35039 21.7133C8.28711 21.6676 8.19219 21.5516 8.13945 21.4602L8.04101 21.2949L8.02344 18.1063C8.00586 14.9563 8.00586 14.9176 7.93203 14.8227C7.76328 14.5941 7.71758 14.5801 7.08125 14.5625C6.40273 14.5414 6.29375 14.5027 6.16367 14.232C6.07578 14.0563 6.06875 13.9051 6.14258 13.7258C6.2164 13.55 13.5676 6.1918 13.7715 6.08984C13.9508 6.00195 14.116 6.00195 14.2953 6.08984Z" fill="#232323"/>
</g>
<defs>
<clipPath id="clip0_6_2773">
<rect width="18" height="18" fill="white" transform="translate(5 5)"/>
</clipPath>
</defs>
</svg>
